<svg width="24" height="24" viewBox="0 0 24 24" fill="none" xmlns="http://www.w3.org/2000/svg">
<path d="M3.6 21.2L2 19.2L4 18.4L8 16.8L10.4 15.6L12 12.8L13.6 9.19995L14 5.99995L13.6 2.79995L14 1.19995L17.2 2.79995L20 5.99995L21.6 9.59995L21.2 14.4L20.4 17.6L16.8 21.2L13.2 23.2H7.2L3.6 21.2Z" fill="#D6EF37"/>
<path d="M1.5 18C2.60156 18 3.66406 17.8594 4.6875 17.5781C5.71094 17.2969 6.66406 16.8906 7.54688 16.3594C8.42969 15.8281 9.23828 15.2031 9.97266 14.4844C10.707 13.7656 11.3359 12.957 11.8594 12.0586C12.3828 11.1602 12.7852 10.2031 13.0664 9.1875C13.3477 8.17188 13.4922 7.10938 13.5 6C13.5 4.96094 13.3672 3.94141 13.1016 2.94141C12.8359 1.94141 12.4492 0.992188 11.9414 0.09375C12.9414 0.21875 13.8984 0.457031 14.8125 0.808594C15.7266 1.16016 16.5742 1.60938 17.3555 2.15625C18.1367 2.70312 18.8438 3.33203 19.4766 4.04297C20.1094 4.75391 20.6484 5.53125 21.0938 6.375C21.5391 7.21875 21.8867 8.11328 22.1367 9.05859C22.3867 10.0039 22.5078 10.9844 22.5 12C22.5 13.1016 22.3594 14.1641 22.0781 15.1875C21.7969 16.2109 21.3906 17.1641 20.8594 18.0469C20.3281 18.9297 19.7031 19.7383 18.9844 20.4727C18.2656 21.207 17.457 21.8359 16.5586 22.3594C15.6602 22.8828 14.7031 23.2852 13.6875 23.5664C12.6719 23.8477 11.6094 23.9922 10.5 24C9.42188 24 8.37109 23.8594 7.34766 23.5781C6.32422 23.2969 5.36328 22.8945 4.46484 22.3711C3.56641 21.8477 2.73828 21.207 1.98047 20.4492C1.22266 19.6914 0.582031 18.8438 0.0585938 17.9062C0.300781 17.9375 0.539062 17.9609 0.773438 17.9766C1.00781 17.9922 1.25 18 1.5 18ZM10.5 22.5C11.4688 22.5 12.3984 22.375 13.2891 22.125C14.1797 21.875 15.0156 21.5234 15.7969 21.0703C16.5781 20.6172 17.2852 20.0703 17.918 19.4297C18.5508 18.7891 19.0977 18.082 19.5586 17.3086C20.0195 16.5352 20.375 15.6992 20.625 14.8008C20.875 13.9023 21 12.9688 21 12C21 10.9375 20.8438 9.91016 20.5312 8.91797C20.2188 7.92578 19.7812 7.00391 19.2188 6.15234C18.6562 5.30078 17.9688 4.54297 17.1562 3.87891C16.3438 3.21484 15.4492 2.68359 14.4727 2.28516C14.8242 3.49609 15 4.73438 15 6C15 7.14062 14.8633 8.24219 14.5898 9.30469C14.3164 10.3672 13.9258 11.375 13.418 12.3281C12.9102 13.2812 12.2969 14.1602 11.5781 14.9648C10.8594 15.7695 10.0586 16.4805 9.17578 17.0977C8.29297 17.7148 7.33984 18.2188 6.31641 18.6094C5.29297 19 4.21094 19.2656 3.07031 19.4062C4.07031 20.4062 5.20312 21.1719 6.46875 21.7031C7.73438 22.2344 9.07812 22.5 10.5 22.5Z" fill="#D6EF37"/>
</svg>
