<svg width="190" height="58" viewBox="0 0 190 58" fill="none" xmlns="http://www.w3.org/2000/svg">
<path d="M4.54757 57.1409C4.00491 57.1411 3.43753 57.0427 2.84546 56.8456C2.25338 56.6485 1.73524 56.3034 1.29104 55.8102C0.846864 55.3664 0.624697 54.9471 0.624539 54.5525C0.624441 54.3058 0.723009 54.0591 0.920244 53.8124C1.06815 53.5656 1.24071 53.3189 1.43795 53.0722C1.88173 52.5293 2.7201 51.789 3.95306 50.8512C5.18604 49.9627 6.59164 48.9508 8.16985 47.8155L6.09862 49.7403C5.90136 49.9377 5.70414 50.2091 5.50694 50.5545C5.3591 50.9493 5.38381 51.0479 5.58106 50.8505C6.02484 50.3077 7.06048 49.3946 8.68797 48.1113C10.3154 46.7786 12.0416 45.4213 13.8663 44.0392L8.16985 47.8155C9.84667 46.5321 11.5728 45.2488 13.3483 43.9654C15.1238 42.682 16.7267 41.522 18.1569 40.4855C19.6365 39.4489 20.7216 38.7331 21.4121 38.3382C21.4614 38.2888 21.5354 38.2641 21.634 38.2641C21.8314 38.264 21.9301 38.338 21.9301 38.486C21.9302 38.6833 21.7329 38.856 21.3383 39.0042C20.7464 39.2511 19.7353 39.8682 18.3051 40.8554C16.9241 41.7933 15.4445 42.8546 13.8663 44.0392C15.7898 42.7558 17.6147 41.5957 19.341 40.559C21.1165 39.473 22.4729 38.6584 23.41 38.1154C22.8178 37.721 21.8556 37.2773 20.5234 36.7845C19.1912 36.2917 17.6617 35.7003 15.9347 35.0104C14.2571 34.271 12.5301 33.4084 10.7537 32.4224C9.02664 31.4365 7.49685 30.2777 6.16431 28.9463C5.52274 28.3545 5.05383 27.738 4.75758 27.0968C4.51063 26.4063 4.38703 25.7403 4.38678 25.099C4.38617 23.5696 5.0022 21.9907 6.23489 20.3622C7.5169 18.7337 9.1936 17.1297 11.265 15.5502C13.3857 13.9707 15.6791 12.4898 18.1452 11.1075C19.3289 10.4657 20.5374 9.84852 21.7705 9.25603C23.0529 8.61419 24.3106 8.02169 25.5437 7.47852C24.1626 7.97241 22.8061 8.49095 21.4744 9.03415C20.1426 9.57735 18.8601 10.1452 17.627 10.7377C17.5777 10.787 17.5284 10.8117 17.4791 10.8117C17.4297 10.8118 17.4051 10.8118 17.4051 10.8118L18.7367 9.99725C21.3509 8.71353 23.9898 7.60248 26.6534 6.66408C29.3664 5.67633 31.9313 4.81197 34.3484 4.07101C32.9179 4.51558 31.4628 5.03416 29.983 5.62675C28.5032 6.17001 27.0235 6.78727 25.5437 7.47852C28.454 6.44136 31.3643 5.5522 34.2747 4.81104C37.2344 4.02052 39.9721 3.42743 42.488 3.03176C45.0038 2.58675 47.0757 2.33926 48.7037 2.28928C49.641 2.23957 50.1096 2.11605 50.1095 1.91872C50.1095 1.77071 49.8628 1.69681 49.3694 1.69701C47.6921 1.74701 45.6695 1.92049 43.3016 2.21743C40.9338 2.51438 38.3686 3.00874 35.6062 3.70051C38.2206 2.95946 40.687 2.36648 43.0055 1.92155C45.3733 1.47661 47.4206 1.25379 49.1473 1.2531C50.0353 1.25274 50.8493 1.32642 51.5893 1.47413C52.2307 1.57253 52.7982 1.99164 53.2918 2.73144C53.7855 3.42191 54.2298 4.23573 54.6248 5.17291C55.0198 6.06075 55.2915 6.89931 55.4398 7.68859L55.5137 7.46656C55.7109 7.12115 55.8342 6.8251 55.8834 6.57841C55.9326 6.28239 56.0312 6.01102 56.1791 5.76429C56.2777 5.61625 56.4997 5.8135 56.8453 6.35603C57.2402 6.89853 57.5858 7.51506 57.882 8.20561C58.2276 8.89614 58.3512 9.48809 58.2527 9.98147C58.1051 10.8695 57.6368 11.8564 56.8479 12.942C56.059 13.9783 55.1221 14.99 54.0371 15.9771C53.0015 16.9642 51.9412 17.7787 50.8561 18.4204C49.8204 19.0622 48.9078 19.3832 48.1185 19.3835C47.9212 19.3836 47.6745 19.3344 47.3784 19.2358C47.9702 18.7422 48.5127 18.224 49.0058 17.6812C49.4989 17.1383 49.9674 16.5954 50.4112 16.0526C48.5372 17.7307 46.4165 19.3349 44.0491 20.8651C41.731 22.3461 39.5115 23.5556 37.3905 24.4938C35.2696 25.432 33.5924 25.9013 32.3591 25.9018C31.7178 25.9021 31.3971 25.7789 31.397 25.5322C31.3969 25.2855 31.6681 24.9894 32.2106 24.6439C32.7531 24.249 33.1477 23.9775 33.3943 23.8294C34.5781 23.2863 36.033 22.3977 37.7592 21.1636C39.5347 19.9296 41.3348 18.5722 43.1596 17.0915C44.9843 15.5614 46.5871 14.1055 47.9678 12.7236C49.3979 11.2923 50.3595 10.1326 50.8525 9.24442C50.9016 8.75106 50.5314 8.40588 49.742 8.20886C48.9526 8.01184 47.9166 7.91359 46.6339 7.9141C45.0059 7.91475 43.0327 8.08821 40.7141 8.43447C38.4449 8.78071 36.0525 9.27499 33.5367 9.91733C31.021 10.5597 28.6039 11.3253 26.2856 12.2142C23.9673 13.1032 21.9451 14.1153 20.2188 15.2507C19.0351 15.8925 17.8514 16.7069 16.6678 17.6941C15.4842 18.6319 14.4979 19.6436 13.709 20.7293C12.9201 21.8149 12.5259 22.8757 12.5263 23.9117C12.5266 24.7504 12.897 25.5396 13.6372 26.2793C15.6113 28.0545 17.7332 29.5336 20.003 30.7167C22.3222 31.8998 24.4439 32.9596 26.3683 33.8962C28.342 34.7834 29.773 35.7202 30.6614 36.7065C30.9082 36.9531 31.081 37.323 31.1799 37.8163C31.3281 38.3096 31.4023 38.8275 31.4025 39.3702C31.4029 40.3075 31.2552 41.1956 30.9595 42.0344C30.6639 42.8732 30.2447 43.342 29.7021 43.4409C25.5584 44.2812 22.0068 45.2939 19.0473 46.4791C16.1371 47.6643 13.7696 48.8246 11.9447 49.96C10.1198 51.0954 8.76353 52.0332 7.87583 52.7736C7.03746 53.5139 6.56893 53.8594 6.47024 53.8101C6.86513 54.3527 7.06267 54.8706 7.06286 55.3639C7.06308 55.9066 6.81658 56.326 6.32337 56.6222C5.83017 56.9677 5.23824 57.1406 4.54757 57.1409ZM34.3484 4.07101L34.6444 3.99689L34.7924 3.99683L35.0143 3.92274L35.1623 3.84869C35.3103 3.79929 35.3843 3.77459 35.3843 3.77459C35.3843 3.77459 35.4583 3.7499 35.6062 3.70051C35.6062 3.70051 35.5816 3.70052 35.5322 3.70054C35.5322 3.70054 35.4089 3.74992 35.1623 3.84869C35.113 3.84871 35.0636 3.87339 35.0143 3.92274C34.9157 3.92278 34.8417 3.94748 34.7924 3.99683C34.743 3.99685 34.6937 4.02154 34.6444 4.07089C34.5951 4.07091 34.595 4.04624 34.6444 3.99689C34.5457 4.04626 34.447 4.07097 34.3484 4.07101ZM41.7588 50.3181C41.4628 50.3182 40.994 49.973 40.3523 49.2826C39.7601 48.6415 39.1431 47.9264 38.5015 47.1374C37.9092 46.2989 37.4649 45.6824 37.1687 45.2879C37.612 43.3637 38.3758 41.3654 39.4604 39.293C40.5942 37.1712 41.9007 35.0987 43.3799 33.0754C44.8591 31.0521 46.3383 29.1769 47.8176 27.4496C49.3463 25.7224 50.6777 24.2665 51.8119 23.082C50.9735 23.7237 50.0858 24.5627 49.1489 25.5991C48.2119 26.5861 47.5709 27.2524 47.2257 27.5979C46.6339 28.1901 46.0422 28.7823 45.4504 29.3746C44.8586 29.9175 44.3162 30.4604 43.823 31.0032C45.3023 29.1773 46.757 27.4994 48.187 25.9695C49.6664 24.4396 50.7267 23.4278 51.3678 22.9342C51.5158 22.7862 51.713 22.6134 51.9596 22.416C52.2555 22.2185 52.5762 22.0951 52.9215 22.0456L53.5132 21.3794C54.8452 21.4282 56.2761 21.8469 57.8057 22.6356C59.3353 23.375 60.6431 24.3612 61.7289 25.5941C62.864 26.7776 63.4566 28.1341 63.5065 29.6634C63.5066 29.8607 63.408 30.0581 63.2107 30.2555C63.0135 30.4036 62.8654 30.305 62.7666 29.9597C62.421 29.2198 62.0261 28.554 61.5818 27.9621C61.1376 27.3703 60.6441 26.9018 60.1013 26.5567C59.6078 26.2609 59.0898 26.1131 58.5471 26.1133C57.9551 26.1136 57.4125 26.3111 56.9193 26.706C55.933 27.4464 54.7494 28.5569 53.3687 30.0374C52.0372 31.4686 50.6812 33.0232 49.3005 34.701C47.9692 36.3789 46.7612 38.0074 45.6765 39.5865C44.6411 41.1656 43.9263 42.4732 43.532 43.5093C43.8279 43.1639 44.3457 42.6704 45.0854 42.0287C45.8252 41.3871 46.6143 40.7454 47.4527 40.1038C48.2911 39.4128 49.0062 38.8452 49.598 38.4009C49.7953 38.2528 50.2145 37.9567 50.8556 37.5124C51.4968 37.0682 52.1626 36.5992 52.8531 36.1056C53.5929 35.612 54.1847 35.2418 54.6286 34.9949C54.6287 35.0936 54.3328 35.365 53.741 35.8093C53.1985 36.2535 52.5327 36.7471 51.7436 37.2901C50.9544 37.833 50.2146 38.3267 49.5241 38.771C48.883 39.2152 48.4884 39.5114 48.3405 39.6594C47.798 40.153 47.1569 40.7206 46.4172 41.3622C45.7268 42.0038 45.0857 42.5961 44.4939 43.139C43.9021 43.6819 43.5076 44.0767 43.3104 44.3234C43.2118 44.5208 43.1872 44.6441 43.2365 44.6935C43.2859 44.7428 43.3845 44.6687 43.5324 44.4713C43.9762 43.8298 44.6419 43.1389 45.5296 42.3985C46.4173 41.6582 47.379 40.9178 48.4147 40.1774C49.4997 39.3876 50.4614 38.6719 51.2999 38.0302C52.2862 37.2898 53.174 36.6482 53.9631 36.1052C54.8015 35.5128 55.5413 34.9699 56.1824 34.4763C56.2314 33.4403 56.6011 32.7248 57.2916 32.3298C58.0314 31.9349 58.5987 31.8113 58.9934 31.9592C59.2895 32.0577 59.7335 32.2549 60.3257 32.5506C60.9671 32.797 61.5346 33.1175 62.028 33.512C62.5215 33.8571 62.6697 34.2517 62.4725 34.6958C62.1275 35.4853 61.8567 36.7187 61.66 38.3961C61.5126 40.0242 61.4392 41.5289 61.4398 42.9102C61.4406 44.8835 62.0576 45.8699 63.291 45.8695C63.9323 45.8692 64.7955 45.5235 65.8806 44.8324C66.2751 44.5856 66.5711 44.4621 66.7684 44.4621C66.9164 44.462 66.9905 44.536 66.9905 44.684C66.9906 44.8813 66.8674 45.1774 66.6209 45.5721C66.3743 45.9176 66.2018 46.1396 66.1031 46.2383C65.5114 46.8799 64.7963 47.4722 63.9578 48.0152C63.1687 48.5088 62.3548 48.7558 61.5161 48.7562C61.1708 48.7563 60.8254 48.7071 60.4801 48.6086C60.1347 48.51 59.7893 48.3375 59.4439 48.091C58.2102 47.2528 57.3217 45.9705 56.7783 44.2441C56.2843 42.5176 56.0371 41.0377 56.0366 39.8044C56.0364 39.5084 56.0363 39.237 56.0362 38.9904C56.0855 38.7437 56.1347 38.5216 56.184 38.3243C55.6415 38.7685 54.7291 39.5335 53.4469 40.6194C52.214 41.6559 50.8331 42.8404 49.3043 44.173C47.7755 45.4563 46.3206 46.6656 44.9398 47.8008C43.5589 48.936 42.4985 49.7751 41.7588 50.3181ZM79.738 51.6349C78.8007 51.6353 77.6166 51.2904 76.1856 50.6003C74.7547 49.9102 73.3977 49.0721 72.1146 48.0859C70.8809 47.0998 70.0172 46.2121 69.5236 45.423C68.9312 44.3872 68.6348 43.524 68.6345 42.8333C68.6344 42.4387 68.7576 42.2413 69.0043 42.2412C69.4483 42.241 70.0898 42.7587 70.9289 43.7944C71.2744 44.2383 71.9159 44.682 72.8535 45.1256C73.8403 45.5199 74.9257 45.8648 76.1099 46.1603C77.3433 46.4558 78.478 46.6034 79.514 46.603C79.7607 46.6029 79.958 46.6028 80.106 46.6027C80.3034 46.6027 80.5007 46.5779 80.698 46.5285C80.6482 45.3939 80.1544 44.2347 79.2166 43.0511C78.2788 41.8181 77.193 40.5359 75.9591 39.2044C74.7746 37.8729 73.738 36.5166 72.8495 35.1356C72.2077 34.1492 71.8867 33.1134 71.8862 32.028C71.8856 30.548 72.4771 29.1418 73.6605 27.8093C74.844 26.4768 76.2989 25.2676 78.0251 24.1816C78.469 23.9347 78.9129 23.6879 79.3568 23.441C79.8007 23.1942 80.2446 22.972 80.6885 22.7745C79.8993 23.0215 79.1101 23.3178 78.3209 23.6635C77.5317 24.0091 76.7918 24.3794 76.1013 24.7743L76.0273 24.7744C75.978 24.7744 76.0273 24.725 76.1753 24.6263C76.3232 24.4782 76.4465 24.3795 76.5451 24.3302C78.518 23.0467 80.5896 22.1579 82.7601 21.6637C84.9799 21.1695 86.9285 20.922 88.6058 20.9213C89.0005 20.9212 89.3705 20.9457 89.7158 20.9949C90.0611 20.9948 90.3818 21.0193 90.6778 21.0685C90.8259 21.1178 90.9246 21.1918 90.9739 21.2904C91.0233 21.389 90.9247 21.4384 90.678 21.4385L91.9362 21.882C92.3802 22.0792 92.7752 22.7203 93.1209 23.8055C93.516 24.8414 93.7877 25.7786 93.9361 26.6172C93.9854 26.5679 94.01 26.5185 94.01 26.4692C94.1086 26.2225 94.1578 26.0251 94.1578 25.8771C94.1577 25.6798 94.1823 25.4825 94.2315 25.2851C94.2808 25.1864 94.4042 25.359 94.6017 25.803C94.7992 26.1975 94.9721 26.6661 95.1203 27.2087C95.3178 27.702 95.4167 28.1213 95.4168 28.4666C95.3678 29.3546 95.0475 30.3168 94.456 31.353C93.8644 32.3892 93.2234 33.2035 92.5329 33.7958C91.8918 34.388 91.3492 34.5116 90.9051 34.1664C91.4475 33.5742 91.8666 32.8834 92.1622 32.0939C91.0775 33.6237 89.7707 34.9562 88.2418 36.0915C86.7623 37.1774 85.5785 37.7206 84.6905 37.7209C84.2465 37.7211 84.0244 37.5978 84.0243 37.3512C84.0243 37.2032 84.1229 37.0058 84.3201 36.7591C84.5667 36.5123 84.7393 36.3642 84.8379 36.3148C85.3311 36.0187 85.9476 35.5251 86.6873 34.8341C87.427 34.0938 88.1667 33.2549 88.9063 32.3172C89.646 31.3796 90.2869 30.4667 90.8292 29.5785C91.4209 28.6902 91.8153 27.9501 92.0124 27.358C92.012 26.5193 91.4199 26.1002 90.2359 26.1007C89.5452 26.101 88.7312 26.2246 87.794 26.4717C86.9061 26.7187 85.9936 27.0151 85.0564 27.3608C83.2313 28.0028 81.5543 28.8668 80.0254 29.9528C78.4965 31.0387 77.7323 32.223 77.7328 33.5057C77.733 33.999 77.8812 34.517 78.1774 35.0595C79.1153 36.4898 80.0779 37.9694 81.0652 39.4984C82.0525 41.0273 82.8917 42.433 83.5829 43.7154C84.274 44.9484 84.6198 45.9103 84.62 46.6009C84.6202 46.8969 84.3983 47.3164 83.9545 47.8592C83.5601 48.402 83.067 48.9449 82.4752 49.4878C81.9328 50.08 81.3903 50.5736 80.8478 50.9684C80.3546 51.4126 79.9847 51.6348 79.738 51.6349ZM106.906 49.404C106.413 49.4042 105.87 49.2071 105.278 48.8127C104.735 48.4182 104.242 47.9991 103.797 47.5553C103.403 47.0621 103.205 46.6428 103.205 46.2975C103.205 46.0015 103.279 45.8535 103.427 45.8534C103.525 45.8534 103.673 45.9027 103.871 46.0013C104.068 46.0505 104.29 46.1244 104.537 46.223C104.389 45.8777 104.265 45.5571 104.166 45.2611C104.068 44.9652 104.018 44.6692 104.018 44.3732C104.018 44.3239 104.265 43.8304 104.758 42.8929C105.25 41.906 105.867 40.7218 106.606 39.3402C107.346 37.9585 108.11 36.5522 108.898 35.1212C109.687 33.6409 110.377 32.358 110.969 31.2724C111.56 30.1868 111.93 29.4714 112.078 29.126L111.93 29.348C111.684 29.7428 111.289 30.3843 110.747 31.2725C110.205 32.1114 109.638 32.9996 109.046 33.9372C108.454 34.8748 107.961 35.6643 107.567 36.3058C107.173 36.9473 106.975 37.2433 106.975 37.194C107.222 36.4539 107.542 35.6398 107.936 34.7516C108.331 33.8635 108.848 32.8273 109.489 31.643C107.566 33.5184 105.495 35.5419 103.275 37.7135C101.106 39.885 99.1085 41.9825 97.284 44.0059C95.4594 45.9799 94.0788 47.6578 93.142 49.0395C92.0563 48.1026 91.2913 47.2396 90.847 46.4505C90.452 45.6613 90.2543 44.8967 90.254 44.1567C90.2539 43.8607 90.3031 43.5647 90.4017 43.2686C90.4509 42.9726 90.5001 42.6766 90.5493 42.3806C90.8449 41.3445 91.609 39.7901 92.8415 37.7177C94.1233 35.6451 95.6764 33.2765 97.5006 30.6118C99.3249 27.9471 101.272 25.1836 103.343 22.3215C105.414 19.4593 107.411 16.7205 109.334 14.1051C111.257 11.4896 112.958 9.19495 114.437 7.22103C115.917 5.2471 116.952 3.84069 117.544 3.00179C117.544 2.95245 117.519 2.9278 117.47 2.92782C117.42 2.92784 117.297 3.00189 117.1 3.14997C116.902 3.29804 116.607 3.61883 116.212 4.11232C115.127 5.49408 114.018 6.90053 112.884 8.33165C111.75 9.76277 110.714 11.0705 109.777 12.2549C108.84 13.4393 108.076 14.3769 107.484 15.0678C106.893 15.7587 106.597 16.0795 106.597 16.0302C106.597 15.9808 106.942 15.438 107.632 14.4017C108.372 13.3654 109.259 12.1071 110.295 10.6267C111.379 9.14625 112.464 7.66581 113.549 6.18538C114.634 4.70495 115.546 3.47125 116.285 2.48429C117.025 1.49733 117.419 1.00383 117.469 1.00381L117.543 1.00379C117.74 1.00371 117.987 1.07761 118.283 1.22549C118.628 1.37335 118.9 1.49658 119.097 1.59517C119.492 1.69367 120.035 2.03879 120.725 2.63052C121.466 3.22222 122.083 3.88797 122.576 4.62778C123.119 5.31823 123.292 5.93482 123.095 6.47757C122.503 7.06981 121.566 8.10618 120.284 9.58669C119.002 11.0672 117.474 12.8191 115.698 14.8425C113.972 16.8659 112.148 19.0373 110.225 21.3567C108.302 23.6268 106.403 25.8969 104.53 28.167C102.656 30.3877 100.93 32.4604 99.3521 34.3851C97.7742 36.2604 96.4922 37.8395 95.506 39.1226C94.5199 40.4057 93.9529 41.1952 93.805 41.4913C94.2489 41.2444 95.112 40.6027 96.3942 39.5662C97.7258 38.5297 99.2546 37.2711 100.981 35.7904C102.756 34.2604 104.581 32.6563 106.455 30.9782C108.329 29.3001 110.079 27.6714 111.707 26.0921C113.334 24.5128 114.666 23.1803 115.701 22.0945L116.589 20.9102C117.23 21.1566 117.921 21.5016 118.661 21.9453C119.451 22.3397 120.117 22.7834 120.66 23.2765C121.252 23.7203 121.548 24.1889 121.548 24.6822C121.548 24.8302 121.474 25.0276 121.327 25.2743C118.911 28.6792 116.938 31.4674 115.41 33.6386C113.881 35.7606 112.994 37.0683 112.747 37.5617C113.339 37.2655 114.178 36.7718 115.263 36.0807C116.348 35.3403 117.581 34.5504 118.962 33.7112C120.54 32.7239 122.168 31.7119 123.845 30.6753C125.571 29.6386 127.273 28.7746 128.95 28.0832C129.344 27.9351 129.344 28.0091 128.95 28.3052C128.605 28.6014 128.111 28.9716 127.47 29.4158C126.829 29.8107 126.286 30.1316 125.843 30.3785C126.632 29.9835 127.298 29.6872 127.84 29.4897C128.432 29.2428 129.197 28.9218 130.134 28.5268C130.578 28.3293 130.948 28.2304 131.244 28.2303C131.589 28.2302 131.638 28.4028 131.392 28.7483C131.145 29.0937 130.751 29.5132 130.208 30.0067C129.715 30.4509 129.222 30.8211 128.729 31.1173C128.137 31.4629 127.052 32.2033 125.474 33.3386C123.896 34.4739 122.12 35.782 120.147 37.2627C118.224 38.6942 116.399 40.1009 114.673 41.4829C113.835 42.1246 113.046 42.7909 112.306 43.4819C111.566 44.1728 110.9 44.8144 110.309 45.4067C110.506 45.4559 110.703 45.5792 110.901 45.7764C111.147 45.9737 111.271 46.1956 111.271 46.4423C111.271 46.7876 110.975 47.2071 110.383 47.7006C109.792 48.1449 109.15 48.5398 108.46 48.8854C107.769 49.231 107.251 49.4039 106.906 49.404ZM112.23 39.1159C112.871 38.573 113.907 37.8326 115.337 36.8947C116.817 35.9074 118.395 34.8708 120.072 33.7848C121.798 32.6988 123.302 31.7855 124.585 31.045C123.5 31.5387 122.316 32.1559 121.034 32.8964C119.751 33.5876 118.691 34.2047 117.852 34.7477C116.619 35.5375 115.584 36.2039 114.745 36.7469C113.907 37.2406 113.216 37.7589 112.674 38.3017C112.526 38.4005 112.378 38.5979 112.23 38.8939C112.082 39.1406 112.082 39.2146 112.23 39.1159ZM139.57 54.867C138.386 54.8675 137.275 54.1526 136.239 52.7223C135.301 51.44 134.486 49.763 133.795 47.6913C133.103 45.6196 132.757 43.523 132.756 41.4017C132.756 41.007 132.756 40.637 132.756 40.2917C132.805 39.897 132.854 39.527 132.903 39.1817C133.051 38.2936 133.519 37.6767 134.308 37.3311C135.147 36.9361 135.739 36.8125 136.084 36.9604C136.183 36.9603 136.306 36.985 136.454 37.0342C136.602 37.0835 136.775 37.1574 136.972 37.256C138.107 36.7129 139.463 35.701 141.041 34.2204C142.619 32.7398 143.951 31.0126 145.035 29.0388C145.676 27.9039 145.996 27.1391 145.996 26.7444C145.996 26.3004 145.675 26.2759 145.034 26.6708C144.442 27.0657 143.777 27.584 143.037 28.2256C142.346 28.8179 141.804 29.2868 141.409 29.6323C138.401 32.3468 135.492 34.8393 132.68 37.1097C129.869 39.3802 127.478 41.8478 125.505 44.5126C124.815 45.4502 124.223 46.2891 123.73 47.0293C123.237 47.7202 122.942 48.3863 122.843 49.0277C121.659 48.1895 120.869 47.4005 120.474 46.6606C120.079 45.9208 119.882 45.2055 119.881 44.5149C119.881 44.1202 119.93 43.7502 120.029 43.4048C120.078 43.0594 120.152 42.7141 120.251 42.3687C120.546 41.3326 121.31 39.7783 122.543 37.7058C123.824 35.6333 125.378 33.2647 127.202 30.5999C129.026 27.9352 130.974 25.1718 133.044 22.3096C135.115 19.4474 137.112 16.7086 139.035 14.0932C140.958 11.4778 142.659 9.18309 144.138 7.20917C145.618 5.23524 146.653 3.82883 147.245 2.98993C146.998 3.13802 146.801 3.26144 146.653 3.36016C146.554 3.40953 146.332 3.63162 145.987 4.02643C145.691 4.37188 145.124 5.06277 144.286 6.09911C143.053 7.67827 142.388 8.46786 142.289 8.4679C142.24 8.46792 142.388 8.19653 142.733 7.65373C143.078 7.11092 143.521 6.44474 144.064 5.6552C144.606 4.81631 145.149 4.02676 145.691 3.28655C146.233 2.54633 146.652 2.0035 146.948 1.65804C147.244 1.36193 147.466 1.21384 147.614 1.21378C147.713 1.21374 147.836 1.26302 147.984 1.36163C148.181 1.41089 148.453 1.48478 148.798 1.58331C149.193 1.68181 149.736 2.02693 150.427 2.61865C151.167 3.21036 151.784 3.87611 152.277 4.61592C152.82 5.30637 152.993 5.92296 152.796 6.46571C152.204 7.05795 151.267 8.09432 149.985 9.57483C148.703 11.0553 147.175 12.8073 145.4 14.8307C143.674 16.854 141.849 19.0254 139.926 21.3449C138.003 23.615 136.105 25.885 134.231 28.1551C132.357 30.3759 130.631 32.4486 129.053 34.3732C127.475 36.2485 126.193 37.8277 125.207 39.1107C124.221 40.3938 123.654 41.1833 123.506 41.4794C123.999 41.2325 124.862 40.5169 126.095 39.3324C127.377 38.1479 128.906 36.7166 130.682 35.0385C132.457 33.3112 134.356 31.5344 136.377 29.7083C138.399 27.8328 140.421 26.1053 142.443 24.5258C144.515 22.897 146.463 21.6136 148.288 20.6755C148.979 20.6752 149.743 20.9709 150.582 21.5626C151.47 22.1542 151.989 22.746 152.137 23.338C152.976 23.7323 153.395 24.3735 153.396 25.2615C153.396 26.1495 153.002 27.1116 152.213 28.1479C151.473 29.1842 150.734 30.0479 149.994 30.7388C149.649 31.0843 149.279 31.4051 148.884 31.7013C148.539 31.9974 148.169 32.2936 147.775 32.5897C148.613 31.7507 149.402 30.8131 150.141 29.7768C150.93 28.7405 151.695 27.5808 152.434 26.2979C152.533 26.0511 152.557 25.7798 152.508 25.4838C152.508 25.1385 152.409 25.1879 152.212 25.6319C151.423 27.4083 150.413 29.0367 149.18 30.5172C147.947 31.9976 146.64 33.3302 145.259 34.5147C145.654 34.2679 146.048 33.9964 146.443 33.7002C146.887 33.3547 147.306 33.0092 147.701 32.6637C146.616 33.8975 145.506 34.934 144.372 35.7731C143.238 36.5629 142.177 37.2046 141.191 37.6983C141.092 37.7477 140.993 37.7971 140.895 37.8465C140.796 37.8958 140.722 37.9205 140.673 37.9206L141.634 37.2542C142.867 36.415 144.076 35.5019 145.259 34.5147C143.78 35.502 142.448 36.2918 141.264 36.8843C140.081 37.4768 139.143 37.8965 138.453 38.1434C138.996 38.4886 139.218 38.8831 139.119 39.3272C139.07 39.6725 139.021 40.4619 138.972 41.6952C138.923 42.8793 138.899 44.1373 138.9 45.4693C138.9 46.2093 138.9 46.9246 138.901 47.6153C138.901 48.2566 138.926 48.8486 138.975 49.3912C139.075 51.4139 139.643 52.425 140.679 52.4246C141.172 52.4244 141.887 52.0787 142.824 51.3877C143.12 51.1409 143.367 51.0175 143.564 51.0174C143.663 51.0174 143.712 51.0913 143.712 51.2393C143.712 52.0287 143.269 52.8182 142.381 53.6079C141.493 54.4469 140.556 54.8666 139.57 54.867ZM156.909 49.6061C156.219 49.6063 155.479 49.4586 154.689 49.163C153.949 48.9166 153.283 48.5222 152.691 47.9798C152.099 47.4373 151.457 46.6236 150.766 45.5385C150.124 44.4041 149.803 43.2942 149.802 42.2089C149.802 41.7649 149.876 41.3702 150.024 41.0248C151.601 36.7815 154.165 32.9078 157.715 29.4037C161.266 25.8503 165.606 22.8639 170.736 20.4445C171.426 20.4443 172.142 20.7153 172.882 21.2577C173.622 21.7507 174.239 22.3671 174.733 23.107L176.065 23.5504C176.015 23.0078 175.843 22.6872 175.547 22.5886C175.251 22.4407 175.102 22.2435 175.102 21.9968C175.201 21.5528 175.521 21.306 176.064 21.2564C176.607 21.1575 177.001 21.108 177.248 21.1079C178.037 21.1076 178.679 21.4774 179.172 22.2172C179.715 22.9076 180.012 23.6722 180.061 24.5108C181.245 24.6584 182.479 24.7565 183.762 24.8053C185.044 24.8542 186.154 24.9031 187.092 24.952C188.078 24.9516 188.621 24.9514 188.72 24.9514L188.942 24.9513C189.09 24.9512 189.164 25.0499 189.164 25.2472C189.164 25.5925 188.967 25.8886 188.572 26.1354C188.079 26.5303 186.92 26.8021 185.094 26.9508C183.318 27.0502 181.444 27.1003 179.47 27.1011C179.224 27.8412 178.854 28.6306 178.361 29.4695C177.868 30.3084 177.301 31.1719 176.66 32.0602C176.217 32.7017 175.551 33.5653 174.663 34.651C173.776 35.6873 172.864 36.7484 171.927 37.8341C170.99 38.9198 170.201 39.8328 169.56 40.573C170.004 40.1782 170.719 39.4872 171.705 38.5002C172.741 37.4637 173.579 36.5507 174.22 35.7612C174.466 35.4651 174.836 34.9962 175.329 34.3547C175.822 33.6638 176.291 33.0223 176.735 32.4302C177.228 31.7886 177.523 31.3692 177.622 31.1718C176.981 32.5041 176.168 33.787 175.182 35.0208C174.195 36.2545 173.209 37.3649 172.223 38.352C171.237 39.339 170.398 40.1533 169.708 40.795C169.017 41.3872 168.623 41.7327 168.524 41.8314C166.453 44.0029 164.357 45.8538 162.237 47.3839C160.165 48.8648 158.389 49.6055 156.909 49.6061ZM154.54 47.091C154.787 47.0909 155.083 47.0168 155.428 46.8687C155.971 46.5724 156.661 46.1035 157.5 45.4618C158.388 44.8201 159.3 44.1538 160.237 43.4627C161.075 42.7717 162.012 41.9327 163.048 40.9456C164.084 39.9092 165.218 38.7001 166.451 37.3183C167.535 36.0845 168.694 34.752 169.927 33.3209C171.16 31.8404 172.368 30.3106 173.551 28.7314L172.441 29.7679C172.787 29.4224 173.206 28.9536 173.699 28.3614C174.241 27.7198 174.685 27.2263 175.03 26.8808C173.501 26.7828 172.588 26.7091 172.292 26.6599C172.243 26.7586 172.169 26.808 172.07 26.808C171.972 26.8081 171.922 26.6354 171.922 26.2901C171.922 26.1914 171.922 26.0681 171.922 25.9201C171.922 25.7227 171.946 25.5254 171.996 25.328C171.502 25.2789 170.96 25.3531 170.368 25.5507C169.776 25.7483 169.11 26.1679 168.37 26.8095C167.532 27.5992 166.447 28.5863 165.115 29.7708C163.784 30.9553 162.403 32.3125 160.973 33.8424C159.543 35.323 158.187 36.9269 156.905 38.6541C155.672 40.3812 154.686 42.207 153.947 44.1313C153.701 44.7234 153.578 45.3154 153.578 45.9074C153.578 46.7461 153.948 46.9926 154.688 46.647C154.442 46.7951 154.318 46.8938 154.318 46.9431C154.318 47.0418 154.392 47.0911 154.54 47.091ZM154.688 46.647C155.625 46.1532 157.105 45.1167 159.127 43.5372C161.198 41.9084 163.294 39.9342 165.415 37.6147C166.105 36.8744 166.894 36.0354 167.782 35.0977C168.669 34.1107 169.532 33.173 170.37 32.2847C171.209 31.3964 171.85 30.7054 172.294 30.2119C171.16 31.5937 170.099 32.8521 169.113 33.9872C168.176 35.0729 167.264 36.1093 166.376 37.0963C164.305 39.3171 162.185 41.316 160.015 43.0928C157.894 44.8697 156.119 46.0544 154.688 46.647Z" fill="#D6EF37"/>
</svg>
